<svg xmlns="http://www.w3.org/2000/svg" xmlns:xlink="http://www.w3.org/1999/xlink" width="1920" height="1080" viewBox="0 0 1920 1080"><defs><linearGradient id="a" x1="0.5" x2="0.5" y2="1" gradientUnits="objectBoundingBox"><stop offset="0" stop-color="#06d4d4"/><stop offset="1" stop-color="#1e4ed8"/></linearGradient><clipPath id="c"><rect width="1920" height="1080"/></clipPath></defs><g id="b" clip-path="url(#c)"><rect width="1920" height="1080" fill="rgba(255,255,255,0)"/><g transform="translate(14582.666 5409.5)"><g transform="translate(-14447.425 -5137.5)"><g transform="translate(0 86.561)"><path d="M168.768,160.909h155.9l-155.9,192.1ZM0,192.1,168.768,0V192.1Z" transform="translate(0 70.301)" fill="rgba(6,212,212,0.69)"/><path d="M168.768,160.909h155.9l-155.9,192.1ZM0,192.1,168.768,0V192.1Z" transform="translate(0 35.931)" fill="rgba(0,61,205,0.52)"/><path d="M168.768,160.909h155.9l-155.9,192.1ZM0,192.1,168.768,0V192.1Z" fill="#50f"/><g transform="translate(0.463 160.07)"><path d="M1.131,0,23.919,28.142l21.791,26.91L44.974,300.7,0,245.164Z" transform="translate(323.086 0) rotate(39)" fill="rgba(30,78,216,0.35)"/><path d="M0-.737,168.179,0V69.756L0,69.741Z" transform="translate(0 32.371)" fill="rgba(30,78,216,0.16)"/></g></g><g transform="translate(392.517 0)"><text transform="translate(0 424)" fill="#2c2c2c" font-size="442" font-family="ProductSans-Bold, Product Sans" font-weight="700"><tspan x="0" y="0">devriz</tspan></text><circle cx="40.908" cy="40.908" r="40.908" transform="translate(950.053 100.84)" fill="url(#a)"/></g></g></g></g></svg>