<svg xmlns="http://www.w3.org/2000/svg" xmlns:xlink="http://www.w3.org/1999/xlink" width="512" height="249" viewBox="0 0 512 249"><defs><linearGradient id="a" x1="0.5" x2="0.5" y2="1" gradientUnits="objectBoundingBox"><stop offset="0" stop-color="#996edd" stop-opacity="0.631"/><stop offset="1" stop-color="#50f"/></linearGradient><linearGradient id="c" x1="0.5" x2="0.5" y2="1" gradientUnits="objectBoundingBox"><stop offset="0" stop-color="#0628d4"/><stop offset="1" stop-color="#0074cd" stop-opacity="0.976"/></linearGradient><linearGradient id="d" x1="0.761" y1="0.258" x2="0.226" y2="0.956" gradientUnits="objectBoundingBox"><stop offset="0" stop-color="#0074cd" stop-opacity="0.976"/><stop offset="1" stop-color="#0628d4"/></linearGradient><clipPath id="f"><rect width="512" height="249"/></clipPath></defs><g id="e" clip-path="url(#f)"><g transform="translate(290.38 224)" fill="#fff" stroke="#707070" stroke-width="1"><rect width="2" height="1" stroke="none"/><rect x="0.5" y="0.5" width="1" fill="none"/></g><g transform="translate(87 46)"><g transform="translate(0.091)"><text transform="translate(85.289 108)" fill="#2c2c2c" font-size="113" font-family="Helvetica-Bold, Helvetica" font-weight="700"><tspan x="0" y="0">evr</tspan></text><text transform="translate(283.289 108)" fill="#2c2c2c" font-size="113" font-family="Helvetica-Bold, Helvetica" font-weight="700"><tspan x="0" y="0">z</tspan></text><g transform="translate(-84.223 -23.894)"><path d="M11.633,0a8.914,8.914,0,0,1,9.183,9.389L18.937,73.476a10.285,10.285,0,0,1-9.75,9.956A8.914,8.914,0,0,1,0,74.043L1.883,9.961A10.285,10.285,0,0,1,11.633,0Z" transform="matrix(0.574, 0.819, -0.819, 0.574, 152.571, 87.635)" fill="url(#a)"/><path d="M9.187,0a10.285,10.285,0,0,1,9.75,9.956l1.878,64.082a8.914,8.914,0,0,1-9.183,9.389,10.285,10.285,0,0,1-9.75-9.956L0,9.393A8.914,8.914,0,0,1,9.187,0Z" transform="matrix(-0.574, 0.819, -0.819, -0.574, 164.512, 100.098)" fill="url(#a)"/></g></g><line x2="0.156" y2="56" transform="translate(269.724 51.5)" fill="none" stroke="#2c2c2c" stroke-width="15"/><circle cx="8" cy="8" r="8" transform="translate(261.38 28)" fill="#2c2c2c"/><circle cx="8" cy="8" r="8" transform="translate(261.38 28)" fill="url(#c)"/><rect width="15" height="31" rx="7.5" transform="translate(0 63)" fill="url(#d)"/></g></g></svg>